<?xml version="1.0" standalone="no"?>
<!DOCTYPE svg PUBLIC "-//W3C//DTD SVG 20010904//EN"
 "http://www.w3.org/TR/2001/REC-SVG-20010904/DTD/svg10.dtd">
<svg version="1.0" xmlns="http://www.w3.org/2000/svg"
 width="1471.000000pt" height="161.000000pt" viewBox="0 0 1471.000000 161.000000"
 preserveAspectRatio="xMidYMid meet">
<metadata>
Created by potrace 1.16, written by Peter Selinger 2001-2019
</metadata>
<g transform="translate(0.000000,161.000000) scale(0.100000,-0.100000)"
fill="#FFFFFF" stroke="none">
<path d="M2401 1578 c-5 -13 -64 -151 -130 -307 -67 -156 -121 -290 -121 -298
0 -8 14 -46 30 -85 17 -38 30 -72 30 -74 0 -2 -31 -4 -68 -4 l-69 0 -170 -402
-170 -403 169 -3 c93 -1 243 -1 333 0 l163 3 -139 339 c-76 186 -139 340 -139
342 0 2 33 4 73 4 l72 0 138 -334 c77 -183 142 -338 146 -344 5 -9 137 -12
518 -10 l511 3 -343 795 -344 795 -241 3 -240 2 -9 -22z"/>
<path d="M11132 1287 l-133 -312 31 -74 c16 -41 30 -77 30 -82 0 -4 -30 -9
-67 -11 l-66 -3 -164 -385 c-90 -212 -166 -393 -169 -402 -5 -17 15 -18 325
-18 182 0 331 3 331 8 0 4 -63 158 -138 342 l-138 335 70 3 c46 2 72 -1 77 -9
4 -7 69 -162 146 -345 l138 -334 514 0 c484 0 513 1 507 17 -4 10 -158 370
-344 800 l-337 783 -240 0 -240 0 -133 -313z"/>
<path d="M683 1575 c-326 -59 -573 -279 -655 -584 -28 -105 -28 -276 0 -382
72 -270 282 -486 567 -580 69 -23 79 -23 548 -27 l477 -3 0 346 0 347 -47 -41
c-27 -23 -183 -171 -348 -330 l-300 -288 -3 378 c-1 208 -1 552 0 765 l3 388
150 -144 c83 -79 239 -229 348 -333 l197 -189 0 346 0 346 -432 -1 c-308 -1
-454 -5 -505 -14z"/>
<path d="M3690 1328 l0 -263 333 -522 c182 -288 334 -523 337 -523 5 0 511
793 518 810 2 5 -102 176 -231 382 l-234 373 -362 3 -361 2 0 -262z"/>
<path d="M5158 1263 l-208 -327 0 -468 0 -468 450 0 450 0 0 795 0 795 -242 0
-243 0 -207 -327z"/>
<path d="M7840 1576 c24 -22 744 -611 758 -619 9 -7 12 58 12 312 l0 321 -392
0 c-333 0 -390 -2 -378 -14z"/>
<path d="M8850 795 l0 -795 455 0 455 0 0 795 0 795 -455 0 -455 0 0 -795z"/>
<path d="M9900 1029 l0 -561 208 5 c232 5 281 15 396 74 154 81 264 233 288
401 35 242 -82 462 -302 571 -119 58 -190 71 -407 71 l-183 0 0 -561z"/>
<path d="M12550 1323 l1 -268 327 -515 c181 -283 332 -515 336 -515 15 0 525
809 518 821 -4 6 -110 176 -237 378 l-230 366 -357 0 -358 0 0 -267z"/>
<path d="M14197 1553 c-13 -21 -108 -170 -211 -332 l-186 -293 0 -464 0 -464
450 0 450 0 0 795 0 795 -240 0 -240 0 -23 -37z"/>
<path d="M7453 1565 c-85 -19 -192 -77 -252 -137 -153 -153 -173 -398 -49
-606 57 -96 182 -204 598 -518 l405 -306 73 6 c253 23 432 180 465 411 14 93
-3 191 -44 263 -53 93 -157 189 -596 548 l-432 354 -53 -1 c-29 0 -81 -7 -115
-14z"/>
<path d="M3690 390 l0 -390 260 0 260 0 -103 163 c-57 89 -168 264 -248 390
-79 125 -149 227 -156 227 -10 0 -13 -83 -13 -390z"/>
<path d="M12550 391 l0 -391 255 0 c140 0 255 2 255 4 0 12 -488 770 -498 774
-9 3 -12 -85 -12 -387z"/>
<path d="M7080 331 l0 -331 422 0 c240 0 418 4 413 9 -8 6 -447 350 -822 644
-10 7 -13 -58 -13 -322z"/>
</g>
</svg>
